<svg xmlns="http://www.w3.org/2000/svg" width="245" height="58" viewBox="0 0 245 58" fill="none"><g clip-path="url(#clip0_742_13933)"><path d="M199.877 42.634V29.5271C199.877 28.8618 200.411 28.3062 201.101 28.3062C201.792 28.3062 202.35 28.8618 202.35 29.5271V41.3895H208.388C209.034 41.3895 209.613 41.9452 209.613 42.634C209.613 43.3227 209.034 43.8549 208.388 43.8549H201.101C200.411 43.8549 199.877 43.2992 199.877 42.634Z" fill="#293C5A"></path><path d="M212.688 29.5295C212.688 28.8408 213.222 28.3086 213.913 28.3086C214.604 28.3086 215.161 28.8408 215.161 29.5295V42.6364C215.161 43.3251 214.583 43.8574 213.913 43.8574C213.243 43.8574 212.688 43.3251 212.688 42.6364V29.5295Z" fill="#293C5A"></path><path d="M219.33 42.6341V29.6394C219.33 28.995 219.864 28.4185 220.555 28.4185C221.246 28.4185 221.78 28.995 221.78 29.6394V36.0154L229.001 28.7967C229.49 28.3089 230.249 28.3089 230.739 28.7967C231.207 29.2637 231.207 30.0412 230.739 30.529L225.837 35.3945L230.783 41.8593C231.228 42.3706 231.139 43.148 230.605 43.5707C230.383 43.7716 230.116 43.8603 229.825 43.8603C229.49 43.8603 229.158 43.7037 228.912 43.4167L224.099 37.1294L221.78 39.4852V42.6393C221.78 43.3046 221.246 43.8603 220.555 43.8603C219.864 43.8603 219.33 43.3046 219.33 42.6393V42.6341Z" fill="#293C5A"></path><path d="M235.264 42.634V29.5271C235.264 28.8384 235.798 28.3062 236.489 28.3062H243.775C244.422 28.3062 245 28.8384 245 29.5271C245 30.2158 244.422 30.7715 243.775 30.7715H237.737V34.8361H242.93C243.597 34.8361 244.155 35.4127 244.155 36.0571C244.155 36.7458 243.597 37.3015 242.93 37.3015H237.737V41.3895H243.775C244.422 41.3895 245 41.9452 245 42.634C245 43.3227 244.422 43.8549 243.775 43.8549H236.554C236.51 43.8549 236.51 43.8314 236.51 43.8314L236.489 43.8549C235.798 43.8549 235.264 43.2992 235.264 42.634Z" fill="#293C5A"></path><path d="M41.9045 39.3569L35.1343 38.1475L34.3255 42.6465L41.0957 43.8559L41.9045 39.3569Z" fill="#4462F0"></path><path d="M41.7418 49.2742L34.8407 39.7256L28.7695 44.0854L35.6707 53.6341L41.7418 49.2742Z" fill="url(#paint0_linear_742_13933)"></path><path d="M31.4834 57.4942L32.8976 42.6646L24.4767 41.8667L23.0625 56.6964L31.4834 57.4942Z" fill="#B9CEE2"></path><path d="M13.9685 57.9957L29.1345 45.8843L20.9099 35.6512L5.74399 47.7626L13.9685 57.9957Z" fill="#293C5A"></path><path d="M22.4478 27.3721H0V42.0547H22.4478V27.3721Z" fill="#FF7B68"></path><path d="M1.93779 19.4449L20.466 34.9038L30.053 23.4867L11.5248 8.02777L1.93779 19.4449Z" fill="#4462F0"></path><path d="M38.1201 24.7335L33.455 0.788086L18.4046 3.70154L23.0696 27.647L38.1201 24.7335Z" fill="#E74968"></path><path d="M44.7632 31.4436L55.5748 6.45557L40.557 -0.000738462L29.7454 24.9872L44.7632 31.4436Z" fill="url(#paint1_linear_742_13933)"></path><path d="M45.8471 38.4141L71.8628 23.4419L63.2967 8.6523L37.2809 23.6245L45.8471 38.4141Z" fill="#FECC38"></path><path d="M45.3519 48.908L82.0577 49.1123L82.1784 27.5687L45.4726 27.3644L45.3519 48.908Z" fill="#4462F0"></path><path d="M64.7656 31.7495H63.9516C60.4652 31.7495 57.6389 34.5668 57.6389 38.0421V38.8534C57.6389 42.3287 60.4652 45.146 63.9516 45.146H64.7656C68.252 45.146 71.0783 42.3287 71.0783 38.8534V38.0421C71.0783 34.5668 68.252 31.7495 64.7656 31.7495Z" fill="white"></path><path d="M62.6351 34.8491L68.1025 38.4519L62.6351 42.0469V34.8491Z" fill="#293C5A"></path><path d="M109.389 41.7053C110.028 42.2715 110.685 42.6732 111.36 42.9132C112.035 43.1533 112.744 43.2707 113.49 43.2707C114.024 43.2707 114.519 43.2054 114.982 43.0724C115.443 42.9393 115.848 42.7358 116.194 42.4619C116.539 42.188 116.814 41.8436 117.018 41.4262C117.222 41.0114 117.324 40.5105 117.324 39.9261C117.324 39.3782 117.235 38.9087 117.058 38.5199C116.88 38.1312 116.631 37.7895 116.312 37.4973C115.992 37.2051 115.602 36.9494 115.139 36.7277C114.678 36.5059 114.163 36.2894 113.595 36.0781C112.972 35.8485 112.407 35.6085 111.891 35.3606C111.376 35.1128 110.936 34.8206 110.572 34.484C110.208 34.1475 109.923 33.7536 109.719 33.3022C109.515 32.8509 109.413 32.3057 109.413 31.6691C109.413 31.0325 109.533 30.5003 109.771 30.0229C110.012 29.5455 110.331 29.1463 110.729 28.8281C111.13 28.5098 111.59 28.2698 112.114 28.1106C112.637 27.9515 113.181 27.8706 113.752 27.8706C114.461 27.8706 115.142 27.9776 115.788 28.1889C116.437 28.4002 116.974 28.6924 117.4 29.0655V30.0751C116.832 29.5794 116.254 29.222 115.67 29.0002C115.084 28.7785 114.446 28.6689 113.752 28.6689C113.273 28.6689 112.825 28.7367 112.407 28.8698C111.991 29.0028 111.624 29.1933 111.315 29.4437C111.004 29.6916 110.755 30.002 110.569 30.3777C110.384 30.7534 110.289 31.1865 110.289 31.6821C110.289 32.1256 110.352 32.517 110.475 32.8535C110.598 33.1901 110.8 33.5031 111.075 33.7875C111.349 34.0718 111.713 34.3353 112.166 34.5727C112.619 34.8128 113.174 35.0476 113.83 35.2797C114.506 35.5276 115.113 35.778 115.655 36.0337C116.196 36.2894 116.654 36.5946 117.026 36.9468C117.398 37.299 117.688 37.7138 117.892 38.1912C118.097 38.6686 118.199 39.2504 118.199 39.9365C118.199 40.6227 118.073 41.2253 117.827 41.7367C117.578 42.248 117.235 42.6758 116.801 43.0202C116.367 43.3646 115.864 43.6255 115.296 43.8003C114.728 43.9777 114.124 44.0637 113.485 44.0637C112.632 44.0637 111.852 43.9437 111.143 43.7063C110.433 43.4663 109.847 43.1533 109.386 42.7645V41.7027L109.389 41.7053Z" fill="#293C5A"></path><path d="M126.218 43.8551H125.312V28.8855H119.908V28.0898H131.625V28.8855H126.22V43.8551H126.218Z" fill="#293C5A"></path><path d="M135.404 43.855H134.499V28.1158C134.8 28.0454 135.177 27.988 135.629 27.9436C136.082 27.8993 136.485 27.8784 136.841 27.8784C138.723 27.8784 140.183 28.2724 141.222 29.0576C142.261 29.8455 142.78 31.0169 142.78 32.5717C142.78 33.2448 142.683 33.8396 142.486 34.3614C142.29 34.8832 142.021 35.3397 141.675 35.7285C141.33 36.1172 140.924 36.4355 140.463 36.6833C140.003 36.9311 139.505 37.1085 138.971 37.2129L144.75 43.855H143.578L138.014 37.4059H135.404V43.855ZM135.404 36.6076H137.294C138.678 36.6076 139.78 36.2659 140.597 35.5798C141.413 34.8936 141.822 33.8918 141.822 32.5744C141.822 31.2569 141.382 30.3203 140.503 29.6603C139.623 29.0002 138.404 28.6715 136.841 28.6715C136.611 28.6715 136.362 28.6793 136.095 28.6976C135.828 28.7159 135.598 28.7419 135.402 28.7785V36.6076H135.404Z" fill="#293C5A"></path><path d="M156.096 43.0594V43.8551H147.496V28.0898H156.017V28.8855H148.401V35.3633H155.565V36.159H148.401V43.0594H156.096Z" fill="#293C5A"></path><path d="M169.117 39.0783H161.155L159.318 43.8551H158.386L164.591 28.0898H165.683L171.941 43.8551H171.009L169.119 39.0783H169.117ZM161.474 38.2826H168.797L165.096 28.9142L161.474 38.2826Z" fill="#293C5A"></path><path d="M182.509 43.8551L177.476 29.0447L174.759 43.8551H173.854L176.756 28.0898H178.033L183.014 42.689L187.94 28.0898H189.246L192.148 43.8551H191.216L188.5 28.9377L183.493 43.8551H182.509Z" fill="#293C5A"></path><path d="M94.9708 21.2466H94.9106C94.6548 21.2466 94.4474 21.4533 94.4474 21.7083V54.6008C94.4474 54.8558 94.6548 55.0625 94.9106 55.0625H94.9708C95.2267 55.0625 95.4341 54.8558 95.4341 54.6008V21.7083C95.4341 21.4533 95.2267 21.2466 94.9708 21.2466Z" fill="#293C5A"></path></g><defs><linearGradient id="paint0_linear_742_13933" x1="28.7679" y1="46.6783" x2="41.7414" y2="46.6783" gradientUnits="userSpaceOnUse"><stop stop-color="#44BEA7"></stop><stop offset="1" stop-color="#44B0A7"></stop></linearGradient><linearGradient id="paint1_linear_742_13933" x1="29.7478" y1="15.7207" x2="55.5771" y2="15.7207" gradientUnits="userSpaceOnUse"><stop stop-color="#44BEA7"></stop><stop offset="1" stop-color="#44B0A7"></stop></linearGradient><clipPath id="clip0_742_13933"><rect width="245" height="58" fill="white"></rect></clipPath></defs></svg>